<?xml version="1.0" standalone="no"?>
<!DOCTYPE svg PUBLIC "-//W3C//DTD SVG 20010904//EN"
 "http://www.w3.org/TR/2001/REC-SVG-20010904/DTD/svg10.dtd">
<svg version="1.0" xmlns="http://www.w3.org/2000/svg"
 width="500.000000pt" height="500.000000pt" viewBox="0 0 500.000000 500.000000"
 preserveAspectRatio="xMidYMid meet">

<g transform="translate(0.000000,500.000000) scale(0.100000,-0.100000)"
fill="#000000" stroke="none">
<path d="M3220 2830 c0 -16 5 -21 23 -18 12 2 22 10 22 18 0 8 -10 16 -22 18
-18 3 -23 -2 -23 -18z"/>
<path d="M1670 2720 c0 -113 1 -120 20 -120 18 0 20 7 20 77 0 42 3 73 7 69 4
-4 20 -38 34 -74 35 -89 53 -89 88 0 14 36 30 70 34 74 4 4 7 -27 7 -69 0 -70
2 -77 20 -77 19 0 20 7 20 120 l0 120 -28 0 c-26 0 -31 -6 -56 -67 -41 -105
-40 -105 -77 -14 -30 74 -35 81 -61 81 l-28 0 0 -120z"/>
<path d="M2510 2720 l0 -120 25 0 c25 0 25 1 25 83 l1 82 33 -80 c18 -45 39
-81 48 -83 11 -2 23 19 44 73 16 41 32 75 36 75 5 0 8 -34 8 -75 0 -68 2 -75
20 -75 19 0 20 7 20 120 l0 120 -29 0 c-27 0 -32 -6 -62 -80 -18 -43 -36 -77
-39 -75 -4 3 -20 38 -36 80 -28 72 -30 75 -61 75 l-33 0 0 -120z"/>
<path d="M1164 2801 c17 -18 30 -21 100 -21 l81 1 -35 15 c-19 8 -64 18 -100
21 l-65 6 19 -22z"/>
<path d="M2190 2800 c0 -11 -7 -20 -15 -20 -8 0 -15 -6 -15 -14 0 -8 7 -16 15
-20 11 -4 15 -21 15 -64 0 -65 11 -82 52 -82 21 0 28 5 28 20 0 11 -7 20 -15
20 -12 0 -15 13 -15 55 0 42 3 55 15 55 8 0 15 7 15 15 0 8 -7 15 -15 15 -8 0
-15 9 -15 20 0 15 -7 20 -25 20 -18 0 -25 -5 -25 -20z"/>
<path d="M1045 2800 c-13 -20 8 -30 62 -30 55 0 56 0 38 20 -19 21 -89 28
-100 10z"/>
<path d="M995 2780 c-3 -5 3 -10 15 -10 12 0 18 5 15 10 -3 6 -10 10 -15 10
-5 0 -12 -4 -15 -10z"/>
<path d="M1990 2755 c-34 -36 -32 -101 4 -132 69 -59 164 3 142 92 -17 66
-100 89 -146 40z m94 -36 c20 -59 -22 -111 -56 -69 -22 27 -23 49 -2 78 20 29
46 25 58 -9z"/>
<path d="M2323 2754 c-22 -22 -25 -32 -20 -72 6 -55 33 -82 82 -82 18 0 44 9
59 21 22 17 26 28 26 69 0 41 -4 52 -26 69 -38 30 -89 27 -121 -5z m91 -26
c21 -29 20 -51 -2 -78 -16 -19 -22 -21 -40 -11 -17 9 -22 21 -22 49 0 60 35
82 64 40z"/>
<path d="M2839 2761 c-32 -26 -17 -38 26 -22 37 13 55 9 55 -14 0 -8 -16 -16
-40 -20 -65 -11 -90 -53 -54 -89 19 -19 65 -21 83 -3 11 10 14 10 18 0 3 -7
13 -13 24 -13 17 0 19 8 19 74 0 66 -3 77 -22 90 -31 22 -81 20 -109 -3z m81
-100 c0 -22 -37 -38 -52 -23 -17 17 -1 42 27 42 18 0 25 -5 25 -19z"/>
<path d="M3010 2690 c0 -89 0 -90 25 -90 23 0 24 3 27 68 l3 67 30 0 30 0 3
-67 c3 -66 4 -68 29 -68 l26 0 -5 77 c-4 59 -9 79 -24 90 -24 18 -59 17 -78
-3 -15 -14 -16 -14 -16 0 0 10 -9 16 -25 16 -25 0 -25 -1 -25 -90z"/>
<path d="M3220 2690 c0 -89 0 -90 25 -90 25 0 25 1 25 90 0 89 0 90 -25 90
-25 0 -25 -1 -25 -90z"/>
<path d="M3329 2761 c-32 -26 -17 -38 26 -22 37 13 55 9 55 -14 0 -8 -16 -16
-40 -20 -65 -11 -90 -53 -54 -89 19 -19 65 -21 83 -3 11 10 14 10 18 0 3 -7
13 -13 24 -13 17 0 19 8 19 74 0 66 -3 77 -22 90 -31 22 -81 20 -109 -3z m81
-100 c0 -22 -37 -38 -52 -23 -17 17 -1 42 27 42 18 0 25 -5 25 -19z"/>
<path d="M1379 2759 c24 -4 50 -14 59 -21 12 -10 14 -10 8 0 -5 8 1 12 21 13
39 2 -51 18 -97 17 -34 0 -33 -1 9 -9z"/>
<path d="M1345 2730 c3 -5 13 -10 21 -10 8 0 12 5 9 10 -3 6 -13 10 -21 10 -8
0 -12 -4 -9 -10z"/>
<path d="M1403 2723 c9 -9 19 -14 23 -11 10 10 -6 28 -24 28 -15 0 -15 -1 1
-17z"/>
<path d="M1460 2732 c0 -18 26 -32 58 -32 27 0 33 3 28 16 -3 9 -6 18 -6 20 0
2 -18 4 -40 4 -22 0 -40 -4 -40 -8z"/>
<path d="M1282 2655 c0 -16 2 -22 5 -12 2 9 2 23 0 30 -3 6 -5 -1 -5 -18z"/>
<path d="M1310 2635 c0 -11 14 -15 58 -16 100 -2 197 2 204 9 4 4 -40 6 -97 4
-58 -2 -105 0 -105 5 0 4 -14 9 -30 10 -21 2 -30 -2 -30 -12z"/>
<path d="M1285 2600 c-3 -5 -1 -10 4 -10 6 0 11 5 11 10 0 6 -2 10 -4 10 -3 0
-8 -4 -11 -10z"/>
<path d="M1463 2593 c9 -2 25 -2 35 0 9 3 1 5 -18 5 -19 0 -27 -2 -17 -5z"/>
</g>
</svg>
